<?xml version="1.0" standalone="no"?>
<!DOCTYPE svg PUBLIC "-//W3C//DTD SVG 20010904//EN"
 "http://www.w3.org/TR/2001/REC-SVG-20010904/DTD/svg10.dtd">
<svg version="1.0" xmlns="http://www.w3.org/2000/svg"
 width="512.000000pt" height="512.000000pt" viewBox="0 0 512.000000 512.000000"
 preserveAspectRatio="xMidYMid meet">
<metadata>
Created by potrace 1.11, written by Peter Selinger 2001-2013
</metadata>
<g transform="translate(0.000000,512.000000) scale(0.100000,-0.100000)"
fill="#000000" stroke="none">
<path d="M2879 4032 c-38 -4 -61 -34 -66 -85 -9 -74 14 -144 106 -332 57 -115
92 -198 96 -230 13 -91 2 -511 -20 -735 -12 -122 -18 -374 -19 -783 -1 -360 1
-480 11 -520 29 -111 71 -144 156 -122 27 7 61 24 75 39 l26 26 3 891 c2 874
5 959 34 959 5 0 9 -3 9 -7 0 -5 16 -26 36 -48 205 -232 327 -295 544 -281
116 7 209 25 310 62 75 26 224 97 247 116 21 17 70 -46 92 -115 23 -78 31
-134 36 -272 4 -101 7 -139 19 -250 3 -22 8 -67 11 -100 6 -62 12 -114 20
-187 5 -48 15 -159 20 -228 2 -25 7 -74 11 -110 3 -36 7 -76 9 -90 1 -14 5
-56 9 -95 4 -38 9 -95 12 -125 16 -183 23 -230 42 -270 21 -43 53 -59 128 -63
83 -5 120 7 132 41 19 56 3 366 -33 602 -2 14 -9 61 -15 105 -6 44 -25 159
-41 255 -16 96 -32 191 -35 210 -3 19 -9 60 -14 90 -5 30 -12 78 -15 105 -3
28 -8 66 -11 85 -3 19 -8 55 -11 80 -2 25 -6 61 -9 80 -10 69 -12 516 -4 585
5 39 12 88 15 110 23 171 26 416 6 490 -8 28 -25 65 -38 83 -21 28 -30 32 -69
32 -30 0 -56 -7 -74 -20 -33 -24 -78 -113 -116 -232 -44 -137 -111 -302 -156
-380 -56 -97 -155 -196 -238 -236 -80 -39 -151 -53 -255 -51 -146 4 -221 36
-326 141 -62 63 -142 174 -171 238 -123 270 -181 370 -260 451 -24 26 -59 54
-76 63 -37 19 -105 33 -143 28z"/>
<path d="M277 3646 c-43 -11 -82 -27 -86 -35 -5 -7 -7 -32 -5 -55 6 -73 14
-140 19 -171 3 -16 11 -57 16 -90 11 -58 13 -347 5 -508 -8 -139 -17 -291 -21
-327 -2 -19 -7 -75 -10 -125 -4 -49 -8 -100 -10 -113 -2 -13 -7 -67 -10 -120
-4 -53 -8 -113 -10 -132 -17 -172 -25 -621 -12 -700 9 -59 55 -148 89 -173 33
-24 88 -17 119 16 28 29 57 94 64 143 3 21 8 46 11 54 13 37 4 232 -16 335
-22 113 -25 159 -25 340 0 178 2 193 24 243 26 58 67 88 107 78 31 -8 62 -56
176 -266 133 -246 198 -348 310 -487 197 -243 406 -379 633 -411 80 -11 235
-8 305 7 287 61 517 275 609 568 80 259 63 503 -69 953 -162 554 -362 870
-512 809 -34 -14 -41 -35 -43 -130 -5 -163 23 -242 214 -621 179 -355 204
-430 205 -628 1 -162 -18 -262 -68 -369 -54 -115 -126 -189 -237 -240 -125
-59 -314 -64 -467 -12 -338 113 -623 461 -860 1051 -96 239 -227 663 -268 870
-3 14 -17 79 -32 144 -32 138 -26 135 -145 102z"/>
</g>
</svg>
